<?xml version="1.0" encoding="UTF-8" standalone="no"?>
<svg 
   xmlns="http://www.w3.org/2000/svg" 
   version="1.1" 
   xmlns:xlink="http://www.w3.org/1999/xlink" 
   xmlns:svgjs="http://svgjs.dev/svgjs" 
   width="1000" 
   height="1125" 
   viewBox="0 0 1000 1125">
   <g transform="matrix(1,0,0,1,0,0)">
   <svg 
   viewBox="0 0 320 360" 
   data-background-color="#ffffff" 
   preserveAspectRatio="xMidYMid meet" 
   height="1125" 
   width="1000" 
   xmlns="http://www.w3.org/2000/svg" 
   xmlns:xlink="http://www.w3.org/1999/xlink">
   <g id="tight-bounds" transform="matrix(1,0,0,1,0,0)">
   <svg viewBox="0 0 320 360" height="360" width="320">
   <g>
   <svg></svg>
   </g><g>
   <svg viewBox="0 0 320 360" height="360" width="320">
   <g>
   <path xmlns="http://www.w3.org/2000/svg" d="M297.491 100.645c-12.426-21.51-112.674-79.355-137.491-79.355-24.817 0-125.028 57.845-137.491 79.355-11.591 20.02-11.591 138.726 0 158.746 12.463 21.474 112.674 79.319 137.491 79.319 24.817 0 125.064-57.845 137.491-79.355 11.591-20.02 11.591-138.69 0-158.71zM309.481 93.705c-14.461-24.998-119.469-86.295-149.481-86.295-30.012 0-135.02 61.297-149.481 86.295-14.025 24.199-14.025 148.391 0 172.59 14.461 24.998 119.469 86.295 149.481 86.295 30.012 0 135.02-61.297 149.481-86.259 14.025-24.235 14.025-148.427 0-172.626zM300.906 261.353c-12.753 22.055-115.472 81.317-140.906 81.318-25.434 0-128.153-59.298-140.906-81.354-11.881-20.529-11.881-142.178 0-162.707 12.753-22.019 115.472-81.281 140.906-81.281 25.434 0 128.153 59.298 140.906 81.318 11.881 20.529 11.881 142.178 0 162.706z" fill="#35185a" fill-rule="nonzero" stroke="none" stroke-width="1" stroke-linecap="butt" stroke-linejoin="miter" stroke-miterlimit="10" stroke-dasharray="" stroke-dashoffset="0" font-family="none" font-weight="none" font-size="none" text-anchor="none" style="mix-blend-mode: normal" data-fill-palette-color="tertiary"></path></g><g transform="matrix(1,0,0,1,48,95.87555555555555)"><svg viewBox="0 0 224 168.2488888888889" height="168.2488888888889" width="224"><g><svg viewBox="0 0 224 168.2488888888889" height="168.2488888888889" width="224"><g><svg viewBox="0 0 224 168.2488888888889" height="168.2488888888889" width="224"><g><svg viewBox="0 0 224 168.2488888888889" height="168.2488888888889" width="224"><g id="textblocktransform"><svg viewBox="0 0 224 168.2488888888889" height="168.2488888888889" width="224" id="textblock"><g><svg viewBox="0 0 224 168.2488888888889" height="168.2488888888889" width="224"><g transform="matrix(1,0,0,1,0,0)"><svg width="224" viewBox="2.9000000953674316 -33.650001525878906 45 33.80000305175781" height="168.2488888888889" data-palette-color="#ffffff"><path d="M8.7 0.15Q8.2 0.15 7.9 0.05L7.9 0.05 6.9 0.05 6 0.05 5.65 0.05 3.4-0.5 3.2-0.9Q3.15-0.9 3.15-1.45L3.15-1.45Q3.15-2.15 3.1-2.6L3.1-2.6 3.05-4.9Q3-5.65 3-7.15L3-7.15 2.9-11Q2.9-12.25 3-14.45L3-14.45 3.05-16.15Q3.15-17.75 3.15-21.4L3.15-21.4 3.15-21.75 3.15-22.4Q3.05-22.55 3.05-22.95L3.05-22.95 3-23.3Q3-24.55 3.15-25.9L3.15-25.9Q3.25-27.6 3.25-29L3.25-29 3.2-30.4Q3.15-30.95 3.15-31.7L3.15-31.7Q3.15-31.75 3.08-31.85 3-31.95 3-32.05L3-32.05Q3-32.55 3.4-32.9 3.8-33.25 4.4-33.4L4.4-33.4Q5.2-33.65 6.45-33.65L6.45-33.65 14.9-33.65 18.8-33.65Q18.85-33.65 18.95-33.55 19.05-33.45 19.15-33.4L19.15-33.4Q19.55-33.05 20.15-32.05L20.15-32.05Q20.3-31.75 20.48-31.38 20.65-31 20.95-30.2L20.95-30.2Q21.3-29.4 21.9-27.75L21.9-27.75 22.5-26.2Q22.9-25.45 23.4-24.05L23.4-24.05Q23.55-23.65 23.73-23.25 23.9-22.85 24.05-22.45L24.05-22.45Q24.15-22.1 24.28-21.93 24.4-21.75 24.4-21.7L24.4-21.7Q24.75-20.9 25.15-20.9L25.15-20.9Q25.65-20.9 25.95-21.7L25.95-21.7Q26-21.75 26.05-21.93 26.1-22.1 26.3-22.5L26.3-22.5 27.05-24.15 29.05-28.4 29.9-30.2Q30.05-30.6 30.13-30.88 30.2-31.15 30.3-31.25L30.3-31.25Q30.5-31.7 31.25-32.8L31.25-32.8Q31.5-33.2 31.7-33.4L31.7-33.4Q31.85-33.45 31.9-33.55 31.95-33.65 32.05-33.65L32.05-33.65 35.95-33.65 44.4-33.65 45.15-33.65 45.65-33.65 46.3-33.65 47.4-33.65Q47.5-33.65 47.65-32.9L47.65-32.9 47.8-28Q47.9-25.9 47.9-21.4L47.9-21.4 47.9-18.5Q47.9-16.8 47.75-14.7 47.6-12.6 47.55-12L47.55-12 47.45-11 47.45-9.25Q47.5-8.55 47.5-7.15L47.5-7.15Q47.5-5.65 47.55-4.9L47.55-4.9Q47.55-3.45 47.65-2.9L47.65-2.9 47.65-1.45 47.65-0.9 47.5-0.5 45.25 0.05 44.9 0.05 44 0.05 43 0.05Q42.65 0.15 42.15 0.15L42.15 0.15Q41.25 0.15 39.65 0.05L39.65 0.05 38.4 0Q38.05-0.05 37.6-0.1 37.15-0.15 36.5-0.15L36.5-0.15 34.55-0.3Q34.45-0.3 34.4-0.25L34.4-0.25 34-0.25Q33.75-0.25 33.7-0.8L33.7-0.8Q33.4-1.8 33.4-4.2L33.4-4.2Q33.4-5.8 33.35-6.7L33.35-6.7 33.3-9.4Q33.25-10.3 33.25-12L33.25-12Q33.25-12.4 32.9-12.4L32.9-12.4Q32.7-12.4 32.5-11.9L32.5-11.9 31.95-10.55 31.5-9.3Q31.4-9 31.3-8.7 31.2-8.4 31.05-8.15L31.05-8.15 30.8-7.55Q30.35-6.55 29.65-5.3L29.65-5.3Q28.9-3.95 27.8-3.15L27.8-3.15Q27.2-2.8 26.75-2.8L26.75-2.8 26-2.8Q25.4-2.8 25-2.9L25-2.9 23.9-2.9 22.9-2.9Q20.9-6.1 19.15-9.9L19.15-9.9 18.4-11.75Q18.1-12.4 18-12.4L18-12.4Q17.65-12.4 17.65-12L17.65-12 17.65-9.65Q17.65-6.15 17.55-4.5L17.55-4.5Q17.45-1.9 17.2-0.9L17.2-0.9Q17.15-0.25 16.9-0.25L16.9-0.25 16.55-0.25 16.3-0.3Q14.6-0.2 13.6-0.1L13.6-0.1Q13-0.05 11.5 0.05 10 0.15 8.7 0.15L8.7 0.15Z" opacity="1" transform="matrix(1,0,0,1,0,0)" fill="#ffffff" class="undefined-text-0" data-fill-palette-color="quaternary" id="text-0"></path></svg></g></svg></g></svg></g></svg></g></svg></g></svg></g></svg></g></svg></g><defs></defs></svg><rect width="320" height="360" fill="none" stroke="none" visibility="hidden"></rect></g></svg></g></svg>